<svg xmlns="http://www.w3.org/2000/svg" viewBox="0 0 22 22">
    <defs>
        <style>.cls-1{fill:#fff;}.cls-2{fill:none;}</style>
    </defs>
    <g id="Layer_2" data-name="Layer 2">
        <g id="Layer_1-2" data-name="Layer 1">
            <path class="cls-1" d="M18.73,19.41l-4.8-6.1L13.45,9l4,.85a.61.61,0,0,0,.23,0,1.06,1.06,0,0,0,.22-2.1L4.28,4.78a1.06,1.06,0,0,0-.44,2.07l4.37,1,.55,5L6.22,14.28a1.18,1.18,0,0,0-.61.86,1.23,1.23,0,0,0,.26,1l2.62,3.26a1.26,1.26,0,0,0,1,.48,1.17,1.17,0,0,0,.8-.28,1.27,1.27,0,0,0,.19-1.79L8.78,15.73l2.62-1.52L16.73,21a1.22,1.22,0,0,0,1,.49,1.27,1.27,0,0,0,1-2.05Z" />
            <path class="cls-1" d="M11.93,5.6A2.54,2.54,0,1,0,9,3.51,2.55,2.55,0,0,0,11.93,5.6Z" />
            <rect class="cls-2" width="22" height="22" />
        </g>
    </g>
</svg>